# xmcd
#
# Track frame offsets:
#	150
#	19575
#	39768
#	60433
#	77182
#	96162
#	114599
#	129079
#	144799
#	164866
#	185239
#	202170
#	214477
#	232910
#	249271
#	269086
#
# Disc length: 3831 seconds
#
# Revision: 1
# Processed by: cddbd v1.5.2PL0 Copyright (c) Steve Scherf et al.
# Submitted via: audiograbber 1.82.02
#
DISCID=e20ef510
DTITLE=Donell Jones - Journey Of A Gemini
DYEAR=2006
DGENRE=R&B
TTITLE0=Better Start Talking
TTITLE1=Special Girl
TTITLE2=I'm Gonna Be
TTITLE3=My Apology
TTITLE4=If U Want
TTITLE5=September Love
TTITLE6=Azzville
TTITLE7=Treat U Right
TTITLE8=Lovin' U
TTITLE9=U Make Me Feel
TTITLE10=My Gift To U
TTITLE11=Marry Me
TTITLE12=I'll Go
TTITLE13=Shut U Down
TTITLE14=Take It There
TTITLE15=You Didn't
EXTD=
EXTT0=
EXTT1=
EXTT2=
EXTT3=
EXTT4=
EXTT5=
EXTT6=
EXTT7=
EXTT8=
EXTT9=
EXTT10=
EXTT11=
EXTT12=
EXTT13=
EXTT14=
EXTT15=
PLAYORDER=
